<svg xmlns="http://www.w3.org/2000/svg" viewBox="0 0 306.69 140.6"><title>Datový zdroj 1m</title><style>g#Vrstva_1-2 path {fill:#202020;}</style><g id="Vrstva_2" data-name="Vrstva 2"><g id="Vrstva_1-2" data-name="Vrstva 1"><path d="M0,140.6c.53-4.1.91-8.22,1.62-12.29,2.53-14.62,5.16-29.22,7.77-43.82,2.39-13.39,4.76-26.78,7.2-40.15,1.51-8.24,3.19-16.44,4.68-24.68C24.05,4.38,37.7-.89,49.57.13c4.55.38,9,1.2,12.64,4a22.67,22.67,0,0,1,5.9,6.56C73.45,20,77,30.1,80.35,40.28q8,24.35,16.06,48.7c1.34,4.06,2.71,8.12,4.29,12.86.49-1.37.79-2.15,1.06-2.94,7.3-22.05,14.44-44.15,22-66.11,2.55-7.42,6-14.55,9.29-21.68,3.12-6.74,9-9.67,16-10.75a32.62,32.62,0,0,1,17.31,2.17c7.89,3.14,12,9.32,13.69,17.13,2.3,10.7,4.11,21.5,6.06,32.27q5.24,28.88,10.39,57.77c1.73,9.71,3.37,19.44,5,29.16a8.48,8.48,0,0,1-.05,1.74h-41Q155.25,107.53,150,74.45l-.6,0q-10.44,33.06-20.86,66.13H73c-7-22.09-14-44.18-21.18-67a15.89,15.89,0,0,0-.58,1.65c-1.2,7.26-2.45,14.5-3.58,21.77-2.26,14.51-4.44,29-6.66,43.55Z"/><path d="M255.21,115.42c.44,11.46-7.18,20.2-16.29,21.43-10.79,1.45-20.35-6.27-22.08-18.06-1.62-11.07-3.72-22.07-5.64-33.1-2.4-13.8-5-27.57-7.2-41.4-1.72-10.78,6-20.5,16.82-21.95,9.09-1.22,19.23,4.6,21.29,17,3.4,20.53,7,41,10.58,61.52Z"/><path d="M265.4,65.9c-.47-11.83,7.09-19.88,16.05-21.41,8.16-1.38,15.13,1.13,19.92,7.76,2.16,3,3.09,7.07,3.86,10.81.91,4.49,1.72,9.19,1.38,13.71-.62,8.21-8.43,15.17-16.6,16s-14.54-1.72-19.37-8.16a14.91,14.91,0,0,1-2.43-5.38C266.94,74,266,68.6,265.4,65.9Z"/></g></g></svg>