<?xml version="1.0" encoding="UTF-8"?>
<svg width="121px" height="21px" viewBox="0 0 121 21" version="1.1" xmlns="http://www.w3.org/2000/svg" xmlns:xlink="http://www.w3.org/1999/xlink">
    <!-- Generator: sketchtool 55.2 (78181) - https://sketchapp.com -->
    <title>0C346193-1F76-4728-A6A4-E1E2FF957004</title>
    <desc>Created with sketchtool.</desc>
    <defs>
        <path d="M20.1550156,4.68433335 L17.4041923,12.0553335 L14.6659902,4.69213335 C14.3624801,4.07233334 13.8876821,3.75913333 13.2944851,3.75913333 L13.2944851,3.75913333 C13.0973538,3.75913333 12.7776164,3.75913333 12.334071,3.75973333 L12.334071,3.75973333 C12.3148386,3.75793333 12.2962073,3.75793333 12.276374,3.75793333 L12.276374,3.75793333 L5.55046978,3.75793333 C5.29443947,3.75793333 5.06064654,3.82093334 4.85149502,3.94633334 L4.85149502,3.94633334 C4.6423435,4.07233334 4.48067178,4.24153334 4.36828289,4.45453335 L4.36828289,4.45453335 C4.256495,4.66513335 4.20000005,4.88653336 4.20000005,5.11753336 L4.20000005,5.11753336 C4.20000005,5.48653337 4.31599501,5.80633338 4.54558087,6.07153338 L4.54558087,6.07153338 C4.78057582,6.34213339 5.11834351,6.47653339 5.55046978,6.47653339 L5.55046978,6.47653339 L7.44305064,6.47653339 L7.44305064,15.7819336 C7.44305064,16.2607336 7.57887892,16.6357336 7.85233852,16.9039336 L7.85233852,16.9039336 C8.12519712,17.1697336 8.48219712,17.3029336 8.91792946,17.3029336 L8.91792946,17.3029336 C9.3482527,17.3029336 9.70224766,17.1697336 9.97450524,16.9039336 L9.97450524,16.9039336 C10.2479648,16.6357336 10.3843941,16.2607336 10.3843941,15.7819336 L10.3843941,15.7819336 L10.3843941,6.47653339 L12.1934346,6.47653339 L15.96297,16.0579336 C16.1114195,16.4179336 16.2875155,16.6921336 16.4924599,16.8817336 L16.4924599,16.8817336 C16.7064195,17.0785336 17.0123337,17.1763336 17.4041923,17.1763336 L17.4041923,17.1763336 C17.7972529,17.1763336 18.1055711,17.0761336 18.3249398,16.8727336 L18.3249398,16.8727336 C18.5358943,16.6771336 18.7119903,16.4065336 18.8538287,16.0603336 L18.8538287,16.0603336 L22.8565561,5.86213338 C22.9503136,5.63053337 22.9971924,5.39173337 22.9971924,5.14693336 L22.9971924,5.14693336 C22.9971924,4.74313336 22.8451369,4.40293335 22.5446318,4.13413334 L22.5446318,4.13413334 C22.2459298,3.86773334 21.8925358,3.73333333 21.486854,3.73333333 L21.486854,3.73333333 C20.8972631,3.73333333 20.4507126,4.05613334 20.1550156,4.68433335 L20.1550156,4.68433335 Z" id="path-1"></path>
    </defs>
    <g id="Update" stroke="none" stroke-width="1" fill="none" fill-rule="evenodd" opacity="0.8">
        <g id="FOOTER---LISTA_MALLTV" transform="translate(-428.000000, -7328.000000)">
            <g id="DESKTOP-/-1430" transform="translate(0.000000, 7282.000000)">
                <g id="Loga" transform="translate(255.000000, 45.000000)">
                    <g id="MALL-TV-/-Horizontal-/-Color" transform="translate(173.333333, 1.000000)">
                        <g id="MALL-TV-text" transform="translate(93.333335, 0.000000)">
                            <polygon id="Path" fill="#CC0000" points="0 21 27.066667 21 27.066667 0 0 0"></polygon>
                            <mask id="mask-2" fill="white">
                                <use xlink:href="#path-1"></use>
                            </mask>
                            <use id="Clip-5" fill="#FFFFFF" xlink:href="#path-1"></use>
                        </g>
                        <g id="MALL-/-MALL-TV-Symbol" fill="#CC0000">
                            <path d="M11.6943925,12.1073667 L13.8992502,5.31781571 C15.0443111,1.76962623 15.5462885,0.466666667 17.8069882,0.466666667 C18.9508483,0.466666667 20.3751191,0.938104429 20.7936338,3.29347769 L22.5799768,13.4381647 C22.9426495,15.4885256 23.3335434,17.7337556 23.3335434,18.398852 C23.3335434,19.3967992 22.5523561,20.5333333 21.2121484,20.5333333 C19.1748166,20.5333333 18.8115435,19.0917868 18.588776,17.5679353 L17.2491688,8.80911796 L17.1933269,8.80911796 L14.1508394,18.5102057 C13.7041035,19.951147 13.0339997,20.5333333 11.6667717,20.5333333 C10.2989433,20.5333333 9.62883947,19.951147 9.1833045,18.5102057 L6.14081699,8.80911796 L6.08437456,8.80911796 L4.74536782,17.5679353 C4.52199988,19.0917868 4.15872675,20.5333333 2.12139498,20.5333333 C0.78178779,20.5333333 -1.24344979e-14,19.3967992 -1.24344979e-14,18.398852 C-1.24344979e-14,17.7337556 0.390893895,15.4885256 0.753566571,13.4381647 L2.53930919,3.29347769 C2.9584243,0.938104429 4.38209469,0.466666667 5.52655516,0.466666667 C7.78725487,0.466666667 8.28923228,1.76962623 9.43369275,5.31781571 L11.6391509,12.1073667 L11.6943925,12.1073667 Z M25.1222878,3.00904158 C25.248983,2.98604461 25.3756783,2.97515132 25.5005722,2.97515132 C26.5315473,2.97515132 27.4448339,3.72799928 27.6303734,4.79796327 L29.1333033,13.4847637 C29.3410595,14.6848421 28.5544681,15.8286384 27.3775833,16.0398474 C26.2000981,16.2516615 25.0778544,15.4503989 24.8700982,14.2515309 L23.3665678,5.56412527 C23.1594121,4.36465206 23.9448026,3.22025053 25.1222878,3.00904158 Z M30.3119887,8.03629885 C30.0964267,6.85377077 30.913641,5.725104 32.1367606,5.51631578 C32.2688599,5.493924 32.4009592,5.4830307 32.5306567,5.4830307 C33.6012616,5.4830307 34.5499748,6.22559055 34.7421193,7.28042496 L34.9654872,8.50531587 C35.1810492,9.68784394 34.3644353,10.8153003 33.1413158,11.0240886 C31.9175958,11.2322716 30.7515192,10.4425075 30.5359571,9.25997938 L30.3119887,8.03629885 Z" id="MALL-TV-Symbol"></path>
                        </g>
                        <g id="ECOSYSTEM-/-MALL" transform="translate(38.733334, 0.000000)" fill-rule="nonzero">
                            <rect id="Rectangle" fill="#CC0000" x="0" y="0" width="53.6666673" height="21"></rect>
                            <path d="M5.91918673,5.79839141 C6.20264826,4.23116445 7.16629039,3.91755378 7.9408876,3.91755378 C9.47124107,3.91755378 9.81122554,4.78421831 10.5856111,7.1443555 L12.0784943,11.6615474 L13.6086361,7.1443555 C14.383445,4.78421831 14.7234294,3.91755378 16.2535712,3.91755378 C17.0281684,3.91755378 17.9918106,4.23116445 18.2752721,5.79839141 L19.4844821,12.5465988 C19.7298382,13.9111564 19.9944588,15.4044225 19.9944588,15.846535 C19.9944588,16.5107368 19.4656411,17.2666666 18.5585219,17.2666666 C17.1795314,17.2666666 16.9337518,16.3076543 16.7828123,15.2936878 L15.8759048,9.46751226 L13.77884,15.9204959 C13.4763258,16.8793017 13.0230837,17.2666666 12.0971236,17.2666666 C11.1717985,17.2666666 10.7181331,16.8793017 10.4160422,15.9204959 L8.35665939,9.46751226 L7.41206992,15.2936878 C7.26070699,16.3076543 7.01513913,17.2666666 5.63593692,17.2666666 C4.72902944,17.2666666 4.20000005,16.5107368 4.20000005,15.846535 C4.20000005,15.4044225 4.46462058,13.9111564 4.71018845,12.5465988 L5.91918673,5.79839141 Z M23.9049368,6.44364855 C24.4530189,4.98715626 24.925102,3.73333333 26.4554555,3.73333333 C28.0232794,3.73333333 28.4957858,4.98715626 29.0436562,6.44364855 L31.9911057,14.2058227 C32.3880365,15.2567697 32.4443478,15.6069476 32.4443478,16.04968 C32.4443478,16.7872229 31.8399544,17.2665225 30.9707289,17.2665225 C29.9694047,17.2665225 29.6482612,16.6393011 29.3647997,15.8100302 L28.9871333,14.6301681 L23.9614598,14.6301681 L23.5835816,15.8100302 C23.3003318,16.6393011 22.9789766,17.2665225 21.9776525,17.2665225 C21.1088503,17.2665225 20.5042453,16.7872229 20.5042453,16.04968 C20.5042453,15.6069476 20.5607682,15.2567697 20.957699,14.2058227 L23.9049368,6.44364855 Z M26.5500832,7.05206973 L26.5121895,7.05206973 L24.8685784,11.8640722 L28.0802249,11.8640722 L26.5500832,7.05206973 Z M33.1431569,5.5033329 C33.1431569,4.45238597 33.7854438,3.91771905 34.6735104,3.91771905 C35.5613653,3.91771905 36.2038639,4.45238597 36.2038639,5.5033329 L36.2038639,14.3902079 L39.4917213,14.3902079 C40.4553635,14.3902079 41.0216515,14.9064879 41.0216515,15.7729458 C41.0216515,16.6024233 40.4553635,17.1558903 39.4917213,17.1558903 L34.6735104,17.1558903 C33.8798604,17.1558903 33.1431569,16.6210168 33.1431569,15.6624177 L33.1431569,5.5033329 Z M41.5883845,5.5033329 C41.5883845,4.45238597 42.2304597,3.91771905 43.1185262,3.91771905 C44.0065927,3.91771905 44.6490915,4.45238597 44.6490915,5.5033329 L44.6490915,14.3902079 L47.9365253,14.3902079 C48.8997441,14.3902079 49.4666673,14.9064879 49.4666673,15.7729458 C49.4666673,16.6024233 48.8997441,17.1558903 47.9365253,17.1558903 L43.1185262,17.1558903 C42.325088,17.1558903 41.5883845,16.6210168 41.5883845,15.6624177 L41.5883845,5.5033329 Z" id="Combined-Shape" fill="#FFFFFF"></path>
                        </g>
                    </g>
                </g>
            </g>
        </g>
    </g>
</svg>